<svg enable-background="new 0 0 351 217" height="248.825365" viewBox="0 0 351 217" width="401.888287" xmlns="http://www.w3.org/2000/svg"><path d="m95.3 200.2c-.6-.8-1.3-1.8-2-2.9s-1.4-2.1-2.1-3c-.4-.5-.7-1-1.1-1.4s-.8-.7-1.2-1v-.1c.8-.3 1.6-.6 2.3-1s1.4-.9 1.9-1.4 1-1.2 1.3-1.9.5-1.5.5-2.4c0-1.5-.3-2.7-1-3.6-.7-1-1.5-1.7-2.6-2.3s-2.2-.9-3.5-1-2.7-.1-4.4-.1c-.7 0-1.5 0-2.6 0s-2.1 0-3.2 0-2 0-2.8 0-1.3 0-1.5 0v.4c.7.1 1.2.2 1.7.3s.9.4 1.2.8c.1.1.3.4.3.7.1.3.1.7.2 1.1 0 .4.1.8.1 1.3v1.3 7.2 2.1 2.1 1.9 1.4 1.2c0 .4-.1.8-.1 1.2s-.1.7-.2 1-.2.5-.3.7c-.3.4-.8.7-1.3.9-.6.2-1.1.3-1.8.4v.4h11.9v-.4c-1 0-1.8-.2-2.3-.6-.6-.3-.9-.7-1.1-1-.2-.4-.4-.8-.4-1.4s0-1.2-.1-2c0-.8 0-1.8 0-3s0-2.6 0-4.1h.8c.2 0 .6 0 1.1.1.6.1 1.2.4 1.8.9s1.1 1 1.6 1.6c.6.7 1.1 1.3 1.5 1.9.4.5.8 1.1 1.2 1.6s.7 1.1 1.1 1.6c.4.6.8 1.2 1.2 1.9.4.6.7 1 .9 1.3s.3.5.5.6c.1.1.2.3.3.4l.5.5h7.5v-.4c-1.1-.2-2.2-.5-3-1.1-1-.5-1.9-1.5-2.8-2.7zm-9-9.3c-.8.3-1.6.4-2.5.5s-1.8.1-2.8.1c0-.2 0-.7 0-1.4 0-.8 0-1.6 0-2.6s0-2 0-3.1 0-2 .1-2.9c0-.6 0-1 .1-1.3 0-.3 0-.5 0-.7s0-.3.1-.4c0-.1 0-.2.1-.4.2 0 .4 0 .7-.1h1.2c.7 0 1.4.1 2 .2s1.3.3 1.9.6c1.2.6 2.1 1.3 2.7 2.3s.9 2 .9 3.3c0 .7-.1 1.3-.3 1.9s-.4 1.2-.8 1.7-.8 1-1.4 1.4c-.6.3-1.2.6-2 .9z"/><path d="m141.8 178.9c-.2.2-.3.4-.5.6s-.3.3-.4.4-.2.2-.3.2c0 0-.3-.1-.7-.4s-1-.6-1.7-.9-1.7-.6-2.8-.9-2.4-.4-3.9-.4c-1.6 0-3.1.2-4.4.5s-2.5.8-3.5 1.4-1.9 1.2-2.7 2-1.4 1.6-1.9 2.4c-.4.7-.8 1.4-1.1 2.1s-.5 1.4-.7 2-.3 1.2-.3 1.8c-.1.6-.1 1.1-.1 1.5 0 2 .3 3.8 1 5.4.7 1.7 1.7 3.1 3 4.3s2.8 2.1 4.7 2.8c1.8.6 3.9 1 6.2 1 1.4 0 2.6-.1 3.6-.3 1.1-.2 1.9-.5 2.7-.8.7-.3 1.3-.6 1.7-.8.4-.3.6-.4.7-.4s.3.2.7.5c.3.3.6.7.9 1.1h.4l.1-8.1h-.4c-.2 1.1-.6 2.1-1.2 3.1s-1.3 1.9-2.2 2.6c-.9.8-1.9 1.4-3 1.8-1.1.5-2.3.7-3.6.7-1.6 0-3.1-.3-4.4-1s-2.4-1.6-3.4-2.7c-.9-1.1-1.6-2.5-2.1-4s-.8-3.2-.8-5c0-1.7.2-3.3.7-4.9s1.2-3 2.1-4.2 2-2.2 3.3-3 2.8-1.1 4.5-1.1c1.2 0 2.4.2 3.5.7 1.1.4 2.1 1 2.9 1.8.9.8 1.6 1.7 2.3 2.7.6 1 1.1 2.1 1.4 3.3h.4v-8.2h-.4s-.1.2-.3.4z"/><path d="m184.9 200.2c-.6-.8-1.3-1.8-2-2.9s-1.4-2.1-2.1-3c-.4-.5-.7-1-1.1-1.4s-.8-.7-1.2-1v-.1c.8-.3 1.6-.6 2.3-1s1.4-.9 1.9-1.4 1-1.2 1.3-1.9.5-1.5.5-2.4c0-1.5-.3-2.7-1-3.6-.7-1-1.5-1.7-2.6-2.3s-2.2-.9-3.5-1-2.7-.1-4.4-.1c-.7 0-1.5 0-2.6 0s-2.1 0-3.2 0-2 0-2.8 0-1.3 0-1.5 0v.4c.7.1 1.2.2 1.7.3s.9.4 1.2.8c.1.1.3.4.3.7.1.3.1.7.2 1.1 0 .4.1.8.1 1.3v1.3 7.2 2.1 2.1 1.9 1.4 1.2c0 .4-.1.8-.1 1.2s-.1.7-.2 1-.2.5-.3.7c-.3.4-.8.7-1.3.9-.6.2-1.1.3-1.8.4v.4h11.7v-.4c-1 0-1.8-.2-2.3-.6-.6-.3-.9-.7-1.1-1-.2-.4-.4-.8-.4-1.4s0-1.2-.1-2c0-.8 0-1.8 0-3s0-2.6 0-4.1h.8c.2 0 .6 0 1.1.1.6.1 1.2.4 1.8.9s1.1 1 1.6 1.6c.6.7 1.1 1.3 1.5 1.9.4.5.8 1.1 1.2 1.6s.7 1.1 1.1 1.6c.4.6.8 1.2 1.2 1.9.4.6.7 1 .9 1.3s.3.5.5.6c.1.1.2.3.3.4l.5.5h7.5v-.4c-1.1-.2-2.2-.5-3-1.1-.8-.5-1.7-1.5-2.6-2.7zm-9.1-9.3c-.8.3-1.6.4-2.5.5s-1.8.1-2.8.1c0-.2 0-.7 0-1.4 0-.8 0-1.6 0-2.6s0-2 0-3.1 0-2 .1-2.9c0-.6 0-1 .1-1.3 0-.3 0-.5 0-.7s0-.3.1-.4c0-.1 0-.2.1-.4.2 0 .4 0 .7-.1h1.2c.7 0 1.4.1 2 .2s1.3.3 1.9.6c1.2.6 2.1 1.3 2.7 2.3s.9 2 .9 3.3c0 .7-.1 1.3-.3 1.9s-.4 1.2-.8 1.7-.8 1-1.4 1.4c-.5.3-1.2.6-2 .9z"/><path d="m234 183.4c-.7-.9-1.5-1.8-2.4-2.4-.9-.7-1.9-1.2-2.9-1.7-.8-.3-1.6-.6-2.4-.8s-1.6-.3-2.4-.4-1.6-.1-2.4-.1-1.6 0-2.3 0c-2.7 0-5.1 0-7 0s-3.4 0-4.4 0v.4c.6.1 1.2.2 1.7.4s1 .5 1.3.9c.1.2.3.4.3.7.1.3.1.6.2 1 0 .4.1.8.1 1.2v1.3 7.2 2.1 2.1 1.9 1.4 1.2c0 .4-.1.8-.1 1.2s-.1.7-.2 1-.2.5-.3.6c-.3.3-.7.6-1.3.9-.6.2-1.2.4-1.8.5v.4h13.3c1.1 0 2.3-.1 3.5-.2 1.2-.2 2.4-.4 3.5-.8s2.2-.9 3.2-1.6 1.9-1.5 2.6-2.5 1.4-2.2 1.8-3.6.7-3 .7-4.8c0-1.6-.2-3-.6-4.2-.5-1.3-1-2.4-1.7-3.3zm-4.2 15.6c-1.3 2.2-3.3 3.7-5.9 4.4-.6.2-1.2.3-1.8.3-.6.1-1.3.1-1.9.1-.7 0-1.4-.1-2.1-.2s-1.4-.4-1.9-.9c-.1-.1-.3-.4-.4-.7s-.2-.6-.2-1-.1-.8-.1-1.2-.1-.8-.1-1.1c0-.8 0-1.8 0-3.1s0-2.7 0-4.3c0-2.9 0-5.4 0-7.5s.1-3.8.2-5c.2 0 .4-.1.7-.1s.6-.1.9-.1.7-.1 1-.1h1c.9 0 1.6 0 2.2.1s1.1.1 1.6.2c1.3.2 2.4.7 3.5 1.5s2 1.7 2.8 2.8 1.4 2.3 1.8 3.7c.4 1.3.7 2.7.7 4.1-.1 3.2-.7 5.9-2 8.1z"/><path d="m276.3 192.5c-.5-.6-1-1.1-1.6-1.5-2.6-2-10-2.3-13.1-3.7-2.6-1.2-3-2.6-3-3.3 0-1.7.9-3.1 2.1-4 3.3-2.3 10.8-2.1 13.3 1.9.4.6.8 1.2 1.1 1.8.4.6.6 1.3.9 2h.4l-.1-7.5h-.3c-.2.3-.4.6-.7.9-.2.3-.4.5-.5.5s-2.4-.9-3.3-1.2c-2.3-.7-8-1.9-12.8 1-2.5 1.6-3.3 4-3.3 6.2 0 1.8 1.2 4.6 5.3 6.1 3.7 1.4 9.6.9 12.5 3.8.8.8 1.2 1.9 1.2 3.2 0 .8-.1 1.6-.4 2.3s-.9 1.5-1.5 1.9c-3.6 2.9-9.4 1.9-11.9.7-2.9-1.4-3.4-2.6-4.1-3.9-.5-.9-.7-1.9-.8-2.5h-.4v6.9h.4c.2-.3.4-.6.7-.9.2-.3.4-.4.5-.4 0 0 1.1.6 1.6.9 5.4 2.8 13 2.8 16.5-.3 2.7-2.5 2.8-5.3 2.8-6.6 0-.8-.1-1.6-.4-2.3-.3-.8-.7-1.5-1.1-2z"/><path d="m115.7 158.7h119.7v1h-119.7z"/><path d="m52.5 138.2c-.7-1-1.5-1.8-2.4-2.5s-1.9-1.3-3-1.7c-4.8-2-16.7.4-22.2-.3-4.6-.6-5.8-2.5-6.1-3.5-.7-2.5.1-5 1.7-6.8 4.3-5 16.8-7.7 22.2-2.6.8.7 1.7 1.4 2.5 2.3.8.8 1.5 1.7 2.1 2.6.2 0 .4-.1.6-.1-.9-3.7-1.8-7.4-2.7-11.1-.2 0-.4.1-.6.1-.2.5-.5 1-.8 1.5s-.5.8-.6.9c-.1 0-4.3-.4-5.7-.5-4-.2-14.2.3-21.3 7.8-3.1 3.4-2.8 6.4-1.8 9.7.8 2.6 3.9 6.2 11 6.7 6.3.4 15.4-2.6 21 .6 1.5.9 2.5 2.3 3 4.3.3 1.3.3 2.4.1 3.5s-.9 2.6-1.5 3.4c-4.4 5.5-13.5 6.4-17.9 5.6-4.9-.9-6.3-2.5-7.8-4-1.2-1.2-1.9-2.5-2.2-3.3-.2.1-.4.1-.6.2 1 3.4 2 6.8 3 10.2.2-.1.4-.1.6-.2.2-.5.4-1.1.6-1.6s.4-.8.5-.9c0 0 1.9.5 2.8.6 9.3 1.7 20.6-1 24.9-6.9 3.3-4.6 2.6-8.8 2.1-10.9-.4-1-.8-2.1-1.5-3.1z"/><path d="m105.2 105.5c.6-.1 1.2-.1 1.7-.2.6 0 1.3-.1 2-.2 1.6-.1 2.9-.1 3.9 0s2.3.5 3.3 1.2c.4.2.8.6 1.3 1.1s1 1.1 1.6 1.7c.5.6 1.1 1.3 1.6 1.9.5.7 1 1.4 1.4 2 .2-.1.4-.1.5-.2-1-3.7-2-7.3-3-11-2.4 1.2-5 1.4-6.4 1.6-1.6.2-3 .3-4.2.5s-2.4.3-3.6.5-2.4.3-3.6.5-2.6.3-4.1.5-2.9.4-4.1.6-2.4.3-3.5.5c-1.2.2-2.4.3-3.6.5s-2.9.4-4.5.6c-1.5.2-4 .7-6.2.3v11.1c.2 0 .4 0 .6.1.1-.7.3-1.5.6-2.3s.6-1.5 1-2.2.7-1.4 1.1-2c.3-.6.7-1.1.9-1.4.7-.9 1.6-1.6 2.5-2 1-.5 2.5-.9 4.1-1.2.8-.1 1.5-.2 2.1-.3s1.2-.2 1.7-.3l1.8-.3c.7-.1 1.4-.2 2.3-.3.9 6.3 1.8 12.5 2.6 18.8.1 1 .3 2.1.5 3.2s.3 2.2.4 3.3.2 2 .3 2.9.2 1.6.3 2.1c.1.6.2 1.2.2 1.9.1.6.1 1.2.1 1.8v1.5c0 .4-.1.8-.3 1-.7 1.1-1.6 1.9-2.4 2.3-.9.4-1.8.7-2.8 1 0 .2.1.4.1.6 6.2-1 12.5-1.8 18.7-2.5 0-.2 0-.4-.1-.6-.9-.1-1.8-.2-2.9-.3-1.1-.2-2-.6-2.7-1.4-.4-.4-.6-1.1-.8-2.1s-.4-2-.5-3.1c-.5-4.2-1.1-8.4-1.6-12.6-.2-1.2-.3-2.6-.6-4.3-.2-1.7-.5-3.5-.7-5.3s-.4-3.5-.6-5.1-.3-2.9-.5-3.9c.9-.1 1.7-.2 2.3-.3.7 0 1.3-.1 1.8-.2z"/><path d="m260.1 127c1.1-.5 2.1-1.1 3.1-1.8.9-.8 1.7-1.7 2.4-2.7.7-1.1 1.1-2.3 1.3-3.7.4-2.3.1-4.3-.8-6.2-.9-1.8-2.2-3.4-3.9-4.5-1.7-1.2-3.6-2.1-5.7-2.6s-4.5-1-7.2-1.3c-.7-.1-1.7-.2-2.8-.3s-2.2-.3-3.4-.4-2.5-.2-3.7-.4c-1.2-.1-2.4-.2-3.5-.3s-2-.2-2.8-.2c-.7-.1-1.2-.1-1.5-.1 0 .2 0 .4-.1.6 1.1.3 2.1.5 3.1.8s1.7.8 2.3 1.5c.2.3.4.6.5 1.2.1.5.1 1.1.1 1.7s0 1.3-.1 2-.1 1.4-.2 2.1c-.4 3.7-.8 7.4-1.2 11.1-.1 1-.2 2.1-.3 3.3-.1 1.1-.2 2.3-.4 3.3-.1 1.1-.3 2.1-.4 3s-.2 1.6-.3 2.2-.1 1.2-.3 1.9c-.1.6-.2 1.2-.3 1.8s-.3 1.1-.4 1.5c-.2.4-.4.8-.6 1-.6.6-1.3.9-2.2 1.2-.9.2-2.1.3-3.1.4 0 .2 0 .4-.1.6 6.2.6 12.5 1.3 18.7 2.1 0-.2 0-.4.1-.6-1.6-.3-2.8-.7-3.6-1.3s-1.4-1.2-1.6-1.7c-.3-.6-.5-1.4-.4-2.2.1-.9.1-1.9.2-3.1.1-.6.1-1.2.2-1.8 0-.6.1-1.2.2-1.8s.2-1.4.3-2.2c.1-.9.2-1.9.4-3.1 1 .1 2 .2 3.2.4 1.2.1 2.5.3 3.8.3 1.3.1 2.6.1 3.9.1s2.5-.1 3.7-.4c1.2-.6 2.3-.9 3.4-1.4zm-9.2 0c-1.3.3-2.7.3-4.1.3-1.4-.1-3-.2-4.6-.4 0-.3.1-1.1.3-2.5s.3-3 .6-4.8c.2-1.8.4-3.7.7-5.6.2-1.9.5-3.5.7-4.8.1-.9.3-1.5.4-2s.2-.8.3-1.1.1-.5.2-.6c.1-.2.2-.4.2-.6h1.2c.5 0 1.2.1 2 .2 1.2.1 2.3.4 3.4.7s2.1.7 3 1.3c1.9 1.1 3.3 2.6 4.2 4.5 1 1.9 1.3 3.9 1 6.1-.3 2.4-1.3 4.4-3 6.2-1.7 1.5-3.8 2.6-6.5 3.1z"/><path d="m337.2 135.9c-.1-2-.4-3.8-1.1-5.6-.7-1.7-1.8-3.4-3-4.9-1.2-1.4-2.6-2.7-4.1-3.8-1.2-.9-2.4-1.5-3.6-2.2-2.8-1.5-10.5-3.4-11.8-3.7-4.6-1.1-8.1-1.9-11.4-2.6-3.2-.7-5.5-1.1-7.2-1.5 0 .2-.1.4-.1.6 1 .3 1.7.7 2.5 1.1s1.4 1.1 1.9 1.9c.2.3.3.7.3 1.2s0 1-.1 1.6-.2 1.2-.3 1.9-.3 1.3-.4 2c-.8 3.6-1.6 7.3-2.3 10.9-.2 1-.4 2.1-.7 3.3-.2 1.1-.5 2.2-.7 3.3s-.5 2-.7 2.9-.4 1.6-.5 2.1c-.1.6-.3 1.2-.5 1.8s-.4 1.2-.6 1.8c-.2.5-.4 1-.6 1.5-.2.4-.4.7-.6.9-.6.4-1.3.7-2.3.9s-1.7.3-2.7.2c0 .2-.1.4-.1.6 6.8 1.4 13.5 2.9 20.3 4.5 1.7.4 3.6.7 5.5 1 1.9.2 3.8.3 5.7.1 1.9-.1 4.1-.4 5.9-1s3.2-1.5 4.8-2.7 3.1-2.7 4.4-4.6 2.4-4.2 3.2-7c.8-2.3 1.1-4.5.9-6.5zm-7.7 4.8c-1.3 4.8-3.5 8.6-6.4 11.4s-6.6 4.2-11 4.3c-.9 0-1.9 0-2.9-.2s-2-.3-3-.6c-1-.2-2.1-.6-3.2-1.1s-2-1.2-2.6-2.1c-.2-.3-.3-.7-.4-1.2s-.1-1.1 0-1.7.1-1.2.2-1.8.2-1.2.3-1.7c.2-1.2.6-2.8 1-4.8s.9-4.2 1.5-6.5c1-4.4 1.9-8.3 2.7-11.5s1.5-5.7 2.1-7.5c.3 0 .7 0 1.2.1s1 .1 1.6.2 1.1.2 1.7.3 1.1.2 1.6.3c1.4.3 2.6.7 3.6 1s1.8.7 2.6 1c2 .9 3.8 2.1 5.3 3.7s2.6 3.4 3.5 5.4c.8 2 1.3 4.1 1.5 6.3-.1 2.4-.3 4.5-.9 6.7z"/><path d="m197.8 127.9c.1-2.1.2-4.1.2-6.2.1-1.8.1-3.5.2-5.2s.2-3.5.3-5.3c.1-1.3.2-2.7.3-4.1s.3-2.4.6-3c.4-.8 1-1.5 1.9-2.1s2.1-.9 3.8-.8c0-.2 0-.4 0-.6-4.4-.2-8.7-.4-13.1-.5-.1.3-.7 1.4-1.6 3.3s-2.1 4.3-3.5 7.2-3 6.1-4.7 9.7-3.5 7.2-5.2 10.8c-4.7-10.4-9.7-20.8-14.9-31-4.4.1-8.9.3-13.3.5v.6c.5.1 1.1.1 1.8.3.7.1 1.4.4 2 .7.6.4 1.2.9 1.7 1.5.5.7.8 1.5.8 2.6.1 1.1.1 2 .2 2.8 0 .8.1 1.5.1 2.2s.1 1.4.1 2.2.1 1.7.1 2.8c.1 2.6.2 5 .2 7.2s.1 4.2 0 5.8c0 2 0 3.6-.2 5s-.5 2.5-1 3.5c-.5.9-1.7 3.4-4.7 3.5v.6c4.9-.2 9.7-.4 14.6-.5 0-.2 0-.4 0-.6-1.7-.2-3-.5-4-1s-1.7-1.2-2.2-2.1-.8-2-1-3.3-.3-2.9-.3-4.7c-.1-2.8-.2-5.2-.3-7.3s-.1-4.1-.2-6c0-1.9-.1-3.8-.1-5.7s-.1-4.2-.2-6.7c.2.4.6 1.2 1.2 2.4s1.3 2.6 2.3 4.4c.9 1.7 1.9 3.7 3 5.9s2.3 4.6 3.5 7.2 2.5 5.2 3.8 8 2.5 5.6 3.8 8.4h.3c.1-.2.3-.7.6-1.4s.6-1.5 1-2.4.7-1.7 1.1-2.5.6-1.4.8-1.8c1.3-2.8 2.5-5.4 3.6-7.8 1.1-2.3 2.2-4.6 3.4-6.9 1.1-2.2 2.3-4.5 3.4-6.9 1.2-2.3 2.5-4.9 3.9-7.7-.1 5.4-.3 10.8-.4 16.2-.1 2.4-.1 4.8-.2 7.1s-.2 4.7-.3 7.2c-.1.8-.2 1.5-.3 2.3-.1.7-.3 1.4-.6 1.9-.4.8-1.2 1.5-2.3 2.1s-2.5.9-4.2 1v.6c6.5.1 12.9.3 19.4.6 0-.2 0-.4 0-.6-2.1-.1-3.6-1.3-4.7-2.4-.3-.3-.4-.5-.4-.6-.2-.4-.4-1-.4-1.8-.1-.7-.1-1.5-.1-2.2.2-2.2.3-4.3.4-6.4z"/><path d="m175.4 86 27.5-18 4.9-37.9-32.4-18.7-32.4 18.6 4.9 37.9zm1.1-2 5.6-14.2 6.7 6.2zm13.2-8.6-7.2-6.6 4.4-7.6 14.5 6.5zm-7.4-32.5 1.7-8.7 3.5-1.9 6.3 8.6zm11.8-1-.8 5.1-2.8-1.2 1-3.5zm-3.7.6-.9 3.2-8.6 4.6 1.3-6.4zm-.5 4.2 3.2 1.4-1.1 6.9h-12.1l.6-3.3zm2.5 9.5 8.3 10.1-13-5.9zm9.7 10.2-9.1-11.1 2.2-13.8 11.4-9.9zm-26.1-53.6 16.2 9.3-16.2 9.4zm0 19.9 17.2-9.9 13.2 7.6-8.9 7.8 2.8-6.1-4.2-5.8-6.7 3.8 6.8 9.3-1.4 1.2-7-9.6-11.8 6.5zm20.5 5.3-5.6-7.6 4.9-2.7 3.3 4.5zm-20.5.6 6.9-3.8-.9 4.6h-6zm0 28.7 4.9.6h.1l.1-1-5.1-.6v-1.5l4.4-1.9-.6 1.5 1 .4 1.4-3.7v-.1l-6.2 2.7v-23.2h5.8l-3 15.4v.1h12.5l-4.8 4.3-4.8 8.3-5.6 1.9v-3.2zm0 4.3 5-1.8-5 12.8zm-26.5-3.9 14.5-6.5 4.4 7.6-7.2 6.6zm9.8-25.4 1 3.5-2.8 1.2-.8-5.1zm-2.3-1.4 6.3-8.6 3.5 1.9 1.7 8.6zm3.9 5.8 9.4 5 .7 3.3h-12.2l-1.1-6.9zm2.3 13.7-13.1 5.9 8.3-10.1zm-1.1 15.6 6.7-6.2 5.6 14.2zm12.8 6.6-5-12.8 5 1.8zm0-19-6.2-2.7 1.4 3.7v.1l1-.4-.6-1.5 4.4 1.9v1.5l-5 .6h-.1l.1 1 5-.6v3.2l-5.6-1.9-4.7-8.3-4.9-4.3h12.5l-.9-5-9.9-5.2-.9-3.2 9.4 1.6h.1l-.7-3.6h5.7v23.1zm0-24.2h-5.9l-.9-4.6 6.9 3.8v.8zm0-26.6v18.7l-16.2-9.4zm-17.2 10 17.3 10v4.7l-12-6.6-7 9.6-11.6-10.1zm-2.1 18.7 2.2 13.8-9.1 11.1-4.5-34.8z"/></svg>